<svg width="10" height="11" viewBox="0 0 10 11" fill="none" xmlns="http://www.w3.org/2000/svg">
<path fill-rule="evenodd" clip-rule="evenodd" d="M4.86596 0.999902C4.86596 0.668532 4.59733 0.399902 4.26596 0.399902C3.93459 0.399902 3.66596 0.668532 3.66596 0.999902V4.66596H-9.72748e-05C-0.331469 4.66596 -0.600098 4.93459 -0.600098 5.26596C-0.600098 5.59733 -0.331469 5.86596 -9.72748e-05 5.86596H3.66596V9.53202C3.66596 9.8634 3.93459 10.132 4.26596 10.132C4.59733 10.132 4.86596 9.8634 4.86596 9.53202V5.86596H8.53202C8.8634 5.86596 9.13202 5.59733 9.13202 5.26596C9.13202 4.93459 8.8634 4.66596 8.53202 4.66596H4.86596V0.999902Z" fill="#535353"/>
</svg>
